<?xml version="1.0" standalone="no"?>
<!DOCTYPE svg PUBLIC "-//W3C//DTD SVG 20010904//EN"
 "http://www.w3.org/TR/2001/REC-SVG-20010904/DTD/svg10.dtd">
<svg version="1.0" xmlns="http://www.w3.org/2000/svg"
 width="1168.000000pt" height="1168.000000pt" viewBox="0 0 1168.000000 1168.000000"
 preserveAspectRatio="xMidYMid meet">
<metadata>
Created by potrace 1.11, written by Peter Selinger 2001-2013
</metadata>
<g transform="translate(0.000000,1168.000000) scale(0.100000,-0.100000)"
fill="#000000" stroke="none">
<path d="M3005 7341 l0 -2668 1320 -1 c726 0 1327 1 1335 4 13 3 15 308 14
2666 l0 2663 -1335 3 -1335 2 1 -2669z"/>
<path d="M6008 9998 c-3 -11 -2 -2535 1 -2631 l1 -28 133 1 c72 1 137 1 142 0
6 -1 13 -2 18 -1 11 3 210 4 222 1 6 -1 15 -2 20 -1 14 3 209 3 220 1 6 -2 13
-2 18 -1 11 3 210 4 222 1 6 -1 15 -2 20 -1 13 3 848 3 861 0 5 -1 12 -1 17 0
11 3 210 4 222 1 6 -1 15 -2 20 -1 14 2 370 2 381 0 5 -1 12 -1 17 1 4 1 35 2
70 3 l62 2 0 1333 1 1332 -1332 0 c-1057 0 -1333 -3 -1336 -12z"/>
<path d="M13 7343 c-10 -4 -13 -280 -13 -1338 l0 -1332 1335 0 1335 0 0 1332
0 1333 -25 4 c-14 3 -25 1 -25 -4 0 -5 -5 -6 -11 -3 -15 10 -69 12 -69 3 0 -4
-7 -5 -16 -1 -23 8 -224 9 -224 1 0 -4 -6 -5 -14 -2 -22 8 -226 10 -226 2 0
-4 -7 -5 -16 -1 -23 8 -224 9 -224 1 0 -4 -6 -5 -14 -2 -22 8 -226 10 -226 2
0 -4 -7 -5 -16 -1 -24 9 -224 9 -224 0 0 -5 -5 -5 -11 -2 -15 10 -69 12 -69 3
0 -4 -7 -5 -16 -1 -23 8 -224 9 -224 1 0 -4 -6 -5 -14 -2 -22 8 -226 10 -226
2 0 -4 -7 -5 -16 -1 -23 8 -224 9 -224 1 0 -4 -6 -5 -14 -2 -22 8 -226 10
-226 2 0 -4 -7 -5 -16 -1 -24 9 -224 9 -224 0 0 -4 -8 -4 -17 1 -10 5 -24 7
-30 5z"/>
<path d="M6012 6991 c-6 -12 -8 -5231 -3 -5308 1 -10 275 -13 1334 -13 l1333
0 -1 2668 0 2667 -1328 1 c-1216 1 -1328 0 -1335 -15z"/>
<path d="M9015 7002 c-3 -3 -5 -604 -5 -1336 l0 -1331 1317 2 c725 1 1326 2
1336 2 16 1 17 69 15 1334 l-3 1332 -1327 1 c-730 1 -1330 -1 -1333 -4z"/>
<path d="M3009 4336 c-1 0 -2 -601 -3 -1333 l-2 -1333 1332 0 c1260 0 1332 1
1335 18 3 9 4 609 4 1332 l-1 1315 -1332 1 c-733 1 -1333 1 -1333 0z"/>
<path d="M9010 2838 l0 -1168 1335 0 1335 0 0 1168 0 1168 -1335 0 -1335 0 0
-1168z"/>
</g>
</svg>
