<?xml version="1.0" encoding="UTF-8"?>
<svg width="351px" height="79px" viewBox="0 0 351 79" version="1.1" xmlns="http://www.w3.org/2000/svg" xmlns:xlink="http://www.w3.org/1999/xlink">
    <!-- Generator: Sketch 52.4 (67378) - http://www.bohemiancoding.com/sketch -->
    <title>Logo</title>
    <desc>Created with Sketch.</desc>
    <defs>
        <linearGradient x1="4.76976586%" y1="101.172753%" x2="96.3781812%" y2="-2.47077515%" id="linearGradient-1">
            <stop stop-color="#C9343A" offset="0%"></stop>
            <stop stop-color="#C16666" offset="100%"></stop>
        </linearGradient>
        <linearGradient x1="-0.00237509543%" y1="49.9999552%" x2="99.9969463%" y2="49.9999552%" id="linearGradient-2">
            <stop stop-color="#7FA9B7" offset="0%"></stop>
            <stop stop-color="#4C8C9C" offset="100%"></stop>
        </linearGradient>
    </defs>
    <g id="Page-1" stroke="none" stroke-width="1" fill="none" fill-rule="evenodd">
        <g id="Home-Page" transform="translate(-80.000000, -60.000000)">
            <g id="Splash" transform="translate(0.000000, -31.000000)">
                <g id="Logo" transform="translate(80.000000, 91.000000)">
                    <g id="Group" transform="translate(64.811417, 6.931702)" fill="#FFFFFF">
                        <g>
                            <path d="M3.8470948,0.239143731 L0.201019368,16.6672783 L1.72599388,16.6672783 L2.817737,11.7423038 L6.75147808,11.7423038 L7.8432212,16.6672783 L9.36819572,16.6672783 L5.72212029,0.239143731 L3.8470948,0.239143731 Z M3.14006116,10.2554536 L4.78287462,2.87665647 L6.42568807,10.2554536 L3.14006116,10.2554536 Z" id="Shape" fill-rule="nonzero"></path>
                            <polygon id="Path" points="16.1820591 0.239143731 14.6986748 0.239143731 14.6986748 16.6672783 21.1555556 16.6672783 21.1555556 15.1804281 16.1820591 15.1804281"></polygon>
                            <polygon id="Path" points="27.8238532 0.239143731 26.3404689 0.239143731 26.3404689 16.6672783 32.7973496 16.6672783 32.7973496 15.1804281 27.8238532 15.1804281"></polygon>
                            <polygon id="Path" points="37.982263 16.6672783 44.8134557 16.6672783 44.8134557 15.1804281 39.4656473 15.1804281 39.4656473 8.4393476 43.8603466 8.4393476 43.8603466 6.9559633 39.4656473 6.9559633 39.4656473 1.72252803 44.8134557 1.72252803 44.8134557 0.239143731 37.982263 0.239143731"></polygon>
                            <path d="M55.5333333,9.51722732 C55.890316,9.3058104 56.2126402,9.03200815 56.4829766,8.709684 C56.7567788,8.38735984 56.9716616,8.02344546 57.124159,7.63180428 C57.2801223,7.23669725 57.356371,6.8069317 57.356371,6.36330275 L57.356371,3.92334353 C57.356371,3.41039755 57.2558614,2.92517839 57.0583078,2.47808359 C56.8642202,2.03792049 56.5973496,1.64627931 56.2680938,1.31355759 C55.9353721,0.980835882 55.540265,0.713965341 55.0862385,0.526809378 C54.6356779,0.339653415 54.1504587,0.242609582 53.6409786,0.242609582 L50.4558614,0.242609582 L50.4558614,16.6707441 L51.9392457,16.6707441 L51.9392457,10.0440367 L53.2493374,10.0440367 L56.0601427,16.6672783 L57.6509684,16.6672783 L54.7673802,9.86034659 C55.0446483,9.77023445 55.2976555,9.65586137 55.5333333,9.51722732 Z M55.8764526,3.91987768 L55.8764526,6.3598369 C55.8764526,6.6648318 55.8175331,6.9490316 55.6996942,7.21243629 C55.5783894,7.47930683 55.4154944,7.71845056 55.214475,7.91946993 C55.0169215,8.11702345 54.7812436,8.2764526 54.5143731,8.39082569 C54.2509684,8.50173293 53.9633028,8.5606524 53.654842,8.5606524 L51.9461774,8.5606524 L51.9461774,1.72252803 L53.654842,1.72252803 C53.9598369,1.72252803 54.2440367,1.7814475 54.5074414,1.89928644 C54.7743119,2.02059123 55.0134557,2.18348624 55.214475,2.38450561 C55.4154944,2.58552497 55.5783894,2.82120285 55.6996942,3.09153925 C55.8175331,3.35494393 55.8764526,3.63221203 55.8764526,3.91987768 Z" id="Shape" fill-rule="nonzero"></path>
                            <path d="M69.9547401,1.21997961 C69.6220183,0.890723751 69.2269113,0.627319062 68.7867482,0.436697248 C68.3396534,0.246075433 67.8544343,0.1490316 67.3449541,0.1490316 C66.8320082,0.1490316 66.3433231,0.249541284 65.8892966,0.447094801 C65.438736,0.641182467 65.043629,0.911518858 64.7109072,1.24424057 C64.3781855,1.57696228 64.111315,1.97553517 63.9137615,2.42262997 C63.716208,2.87665647 63.6156983,3.36534149 63.6156983,3.87828746 L63.6156983,13.0558614 C63.6156983,13.5688073 63.716208,14.0574924 63.9137615,14.5115189 C64.1078491,14.9620795 64.3781855,15.3571865 64.7109072,15.6899083 C65.043629,16.02263 65.4422018,16.2895005 65.8892966,16.487054 C66.3433231,16.6846075 66.8320082,16.7851172 67.3449541,16.7851172 C67.8232416,16.7851172 68.2876656,16.6950051 68.7243629,16.5147808 C69.1575943,16.3380224 69.5457696,16.091947 69.8750255,15.7834862 C70.2077472,15.4750255 70.4815494,15.1076453 70.6860347,14.6917431 C70.8905199,14.2723751 71.0118247,13.8183486 71.0464832,13.3400612 L71.0464832,13.3261978 L71.0464832,7.09459735 L66.4022426,7.09459735 L66.4022426,8.57798165 L69.5630989,8.57798165 L69.5630989,13.0523955 C69.5630989,13.3573904 69.5041794,13.6485219 69.3828746,13.9188583 C69.2615698,14.1926606 69.0986748,14.4352701 68.9011213,14.6328236 C68.7001019,14.833843 68.4644241,14.996738 68.1940877,15.1180428 C67.930683,15.2358818 67.6464832,15.2948012 67.3414883,15.2948012 C67.0364934,15.2948012 66.7453619,15.2358818 66.4750255,15.114577 C66.2012232,14.9932722 65.9586137,14.8303772 65.7610601,14.6328236 C65.5600408,14.4318043 65.4006116,14.1926606 65.2793068,13.9153925 C65.1614679,13.6450561 65.0990826,13.3539246 65.0990826,13.0454638 L65.0990826,3.8540265 C65.0990826,3.5490316 65.158002,3.26136595 65.275841,3.00142712 C65.3971458,2.73109072 65.5600408,2.49541284 65.7610601,2.29439348 C65.9620795,2.09337411 66.2012232,1.9304791 66.4750255,1.80917431 C66.7453619,1.69133537 67.0364934,1.62895005 67.3414883,1.62895005 C67.6464832,1.62895005 67.930683,1.68786952 68.1940877,1.80570846 C68.4609582,1.92701325 68.7001019,2.08990826 68.9011213,2.29092762 C69.1021407,2.49194699 69.2650357,2.72762487 69.3863405,2.99796126 C69.5041794,3.26136595 69.5630989,3.54556575 69.5630989,3.85056065 L69.5630989,4.20754332 L71.0464832,4.20754332 L71.0464832,3.85056065 C71.0464832,3.33761468 70.9459735,2.84892966 70.74842,2.39490316 C70.5543323,1.94434251 70.2874618,1.54923547 69.9547401,1.21997961 Z" id="Path"></path>
                            <path d="M80.2552497,0.239143731 L76.6091743,16.6672783 L78.1341488,16.6672783 L79.2258919,11.7423038 L83.159633,11.7423038 L84.2513761,16.6672783 L85.7763507,16.6672783 L82.1302752,0.239143731 L80.2552497,0.239143731 Z M79.5482161,10.2554536 L81.1910296,2.87665647 L82.833843,10.2554536 L79.5482161,10.2554536 Z" id="Shape" fill-rule="nonzero"></path>
                            <polygon id="Path" points="96.7977574 0.239143731 96.7977574 12.1304791 92.4827727 0.239143731 91.1068298 0.239143731 91.1068298 16.6672783 92.5902141 16.6672783 92.5902141 4.77594292 96.9051988 16.6672783 98.2846075 16.6672783 98.2846075 0.239143731"></polygon>
                        </g>
                        <g transform="translate(0.000000, 27.726809)">
                            <path d="M15.2878695,3.12273191 C14.4699286,2.30132518 13.506422,1.66014271 12.3938838,1.19918451 C11.2848114,0.7382263 10.0994903,0.506014271 8.84138634,0.506014271 L2.24240571,0.506014271 L1.73639144,0.506014271 L0.159429154,0.506014271 L0.159429154,43.1741081 L1.73639144,43.1741081 L2.24240571,43.1741081 L8.84138634,43.1741081 C10.0994903,43.1741081 11.2813456,42.941896 12.3938838,42.4809378 C13.5029562,42.0199796 14.4699286,41.3753313 15.2878695,40.5573904 C16.1058104,39.7359837 16.7539246,38.7794088 17.2356779,37.6841998 C17.7174312,36.5889908 17.9600408,35.4106014 17.9600408,34.1490316 L17.9600408,9.53455657 C17.9600408,8.27298675 17.7174312,7.09459735 17.2356779,5.99938838 C16.7539246,4.90071356 16.1058104,3.94413863 15.2878695,3.12273191 Z M15.8770642,34.1455657 C15.8770642,35.1125382 15.6864424,36.0171254 15.3086646,36.8593272 C14.9308869,37.7015291 14.4248726,38.4362895 13.7940877,39.0670744 C13.1633028,39.6978593 12.4250765,40.193476 11.5863405,40.5504587 C10.7441386,40.9074414 9.83955148,41.0876656 8.872579,41.0876656 L2.24587156,41.0876656 L2.24587156,2.58552497 L8.872579,2.58552497 C9.83955148,2.58552497 10.7441386,2.76574924 11.5863405,3.12273191 C12.4285423,3.47971458 13.1633028,3.97533129 13.7940877,4.60611621 C14.4248726,5.23690112 14.9308869,5.97512742 15.3086646,6.8138634 C15.6864424,7.65606524 15.8770642,8.5606524 15.8770642,9.52762487 L15.8770642,34.1455657 Z" id="Shape" fill-rule="nonzero"></path>
                            <path d="M42.5121305,0.50254842 L33.0434251,43.1706422 L35.188787,43.1706422 L38.1555556,29.7889908 L50.4004077,29.7889908 L53.3671764,43.1706422 L55.5125382,43.1706422 L46.0438328,0.50254842 L42.5121305,0.50254842 Z M38.5991845,27.7060143 L44.2797146,2.2077472 L49.9602446,27.7060143 L38.5991845,27.7060143 Z" id="Shape" fill-rule="nonzero"></path>
                            <polygon id="Path" points="74.5747197 0.50254842 66.0556575 0.50254842 66.0556575 2.58552497 74.5747197 2.58552497 74.5747197 43.1706422 76.6576962 43.1706422 76.6576962 2.58552497 85.1802243 2.58552497 85.1802243 0.50254842 76.6576962 0.50254842"></polygon>
                            <path d="M234.41631,16.9133537 C235.63629,16.116208 236.603262,15.0729867 237.320693,13.7906218 C238.034659,12.5082569 238.395107,11.0872579 238.395107,9.53109072 C238.395107,8.2695209 238.152497,7.0911315 237.670744,5.99592253 C237.185525,4.90071356 236.533945,3.94413863 235.712538,3.12273191 C234.891131,2.30132518 233.934557,1.66014271 232.839348,1.19918451 C231.744139,0.7382263 230.565749,0.506014271 229.304179,0.506014271 L223.183486,0.506014271 L222.174924,0.506014271 L221.10051,0.506014271 L221.10051,43.1741081 L222.174924,43.1741081 L223.183486,43.1741081 L231.387156,43.1741081 C232.648726,43.1741081 233.827115,42.941896 234.922324,42.4809378 C236.017533,42.0199796 236.974108,41.3753313 237.795515,40.5573904 C238.616922,39.7359837 239.268502,38.7794088 239.753721,37.6841998 C240.235474,36.5889908 240.478084,35.4106014 240.478084,34.1490316 L240.478084,25.4393476 C240.478084,23.4603466 239.909684,21.7066259 238.772885,20.167788 C237.636086,18.6289501 236.183894,17.5441386 234.41631,16.9133537 Z M223.183486,2.58552497 L229.304179,2.58552497 C230.271152,2.58552497 231.175739,2.76574924 232.017941,3.12273191 C232.860143,3.47971458 233.594903,3.97533129 234.225688,4.60611621 C234.856473,5.23690112 235.362487,5.97512742 235.740265,6.8138634 C236.118043,7.65606524 236.308665,8.5606524 236.308665,9.52762487 C236.308665,10.4530071 236.12844,11.3264016 235.771458,12.1478084 C235.414475,12.9692151 234.929256,13.693578 234.319266,14.3243629 C233.709276,14.9551478 232.995311,15.4507645 232.173904,15.8077472 C231.352497,16.1647299 230.479103,16.3657492 229.553721,16.4073394 L223.18002,16.4073394 L223.18002,2.58552497 L223.183486,2.58552497 Z M238.395107,34.1455657 C238.395107,35.1125382 238.204485,36.0171254 237.826707,36.8593272 C237.44893,37.7015291 236.942915,38.4362895 236.31213,39.0670744 C235.681346,39.6978593 234.943119,40.193476 234.104383,40.5504587 C233.262181,40.9074414 232.357594,41.0876656 231.390622,41.0876656 L223.186952,41.0876656 L223.186952,18.490316 L229.307645,18.490316 L229.560652,18.490316 L231.518858,18.490316 C232.485831,18.5319062 233.390418,18.7329256 234.23262,19.0899083 C235.074822,19.4468909 235.799185,19.9425076 236.409174,20.5732926 C237.019164,21.2040775 237.504383,21.9423038 237.861366,22.7810398 C238.218349,23.6232416 238.398573,24.5070336 238.398573,25.4324159 L238.398573,34.1455657 L238.395107,34.1455657 Z" id="Shape" fill-rule="nonzero"></path>
                            <path d="M260.926606,4.41896024 C261.55739,3.78817533 262.306014,3.28216106 263.165545,2.90091743 C264.028542,2.52313965 264.943527,2.33251784 265.910499,2.33251784 C266.877472,2.33251784 267.782059,2.52313965 268.624261,2.90091743 C269.466463,3.27869521 270.201223,3.78470948 270.832008,4.41549439 C271.462793,5.04627931 271.968807,5.78450561 272.346585,6.62324159 C272.724363,7.46544343 272.914985,8.37003058 272.914985,9.33700306 L274.997961,9.33700306 C274.997961,8.07543323 274.755352,6.88664628 274.273598,5.7706422 C273.788379,4.65463812 273.136799,3.6911315 272.315392,2.87665647 C271.493986,2.06218145 270.537411,1.42099898 269.442202,0.953109072 C268.346993,0.485219164 267.168603,0.249541284 265.907034,0.249541284 C264.645464,0.249541284 263.456677,0.492150866 262.340673,0.973904179 C261.224669,1.45912334 260.257696,2.11070336 259.43629,2.93211009 C258.614883,3.75351682 257.963303,4.7204893 257.478084,5.83649337 C256.992864,6.95249745 256.753721,8.1412844 256.753721,9.40285423 C256.753721,11.0040775 256.99633,12.411213 257.478084,13.6311927 C257.959837,14.8511723 258.594088,15.9671764 259.370438,16.975739 C260.150255,17.9843017 261.030581,18.9235474 262.021814,19.7830785 C263.009582,20.6460754 264.011213,21.4778797 265.019776,22.2750255 C266.028338,23.0756371 267.009174,23.8831804 267.955352,24.7045872 C268.901529,25.5259939 269.743731,26.4097859 270.478491,27.3559633 C271.213252,28.3021407 271.802446,29.3453619 272.246075,30.4786952 C272.686239,31.6154944 272.908053,32.8978593 272.908053,34.3292559 C272.908053,35.2962283 272.717431,36.211213 272.339653,37.07421 C271.961876,37.9372069 271.455861,38.6823649 270.825076,39.3131498 C270.194292,39.9439348 269.456065,40.449949 268.617329,40.8277268 C267.775127,41.2055046 266.87054,41.3961264 265.903568,41.3961264 C264.936595,41.3961264 264.021611,41.2055046 263.158614,40.8277268 C262.295617,40.449949 261.550459,39.9439348 260.919674,39.3131498 C260.288889,38.6823649 259.782875,37.9337411 259.405097,37.07421 C259.027319,36.211213 258.836697,35.2962283 258.836697,34.3292559 L256.753721,34.3292559 C256.753721,35.5908257 256.99633,36.7796126 257.478084,37.8956167 C257.959837,39.0116208 258.614883,39.9785933 259.43629,40.8 C260.257696,41.6214067 261.224669,42.2729867 262.340673,42.7582059 C263.456677,43.2399592 264.645464,43.4825688 265.907034,43.4825688 C267.168603,43.4825688 268.346993,43.2399592 269.442202,42.7547401 C270.537411,42.2695209 271.493986,41.6179409 272.315392,40.7965341 C273.136799,39.9751274 273.788379,39.0046891 274.273598,37.888685 C274.755352,36.7726809 274.997961,35.5804281 274.997961,34.3153925 C274.997961,32.6309888 274.744954,31.1233435 274.23894,29.7959225 C273.732926,28.4685015 273.070948,27.269317 272.249541,26.1949032 C271.428135,25.1204893 270.502752,24.1292559 269.473394,23.2246687 C268.440571,22.3166157 267.400815,21.4432212 266.350663,20.6010194 C265.38369,19.841998 264.44791,19.0760449 263.543323,18.2927625 C262.638736,17.512946 261.838124,16.6811417 261.144954,15.7973496 C260.451784,14.9135576 259.893782,13.9535168 259.470948,12.9206932 C259.05158,11.8878695 258.840163,10.6990826 258.840163,9.34740061 C258.840163,8.38042813 259.030785,7.47237513 259.408563,6.63017329 C259.789806,5.79143731 260.295821,5.05321101 260.926606,4.41896024 Z" id="Path"></path>
                            <path d="M110.647299,0.50254842 L107.11213,0.50254842 L97.6434251,43.1706422 L99.788787,43.1706422 L102.755556,29.7889908 L115.000408,29.7889908 L117.967176,43.1706422 L120.112538,43.1706422 L110.647299,0.50254842 Z M103.199185,27.7060143 L108.879715,2.2077472 L114.560245,27.7060143 L103.199185,27.7060143 Z" id="Shape" fill-rule="nonzero"></path>
                            <path d="M193.706422,0.50254842 L184.237717,43.1706422 L186.383078,43.1706422 L189.349847,29.7889908 L201.594699,29.7889908 L204.561468,43.1706422 L206.70683,43.1706422 L197.24159,0.50254842 L193.706422,0.50254842 Z M189.793476,27.7060143 L195.474006,2.2077472 L201.154536,27.7060143 L189.793476,27.7060143 Z" id="Shape" fill-rule="nonzero"></path>
                            <polygon id="Path" points="158.236901 0.50254842 156.153925 0.50254842 156.153925 43.1706422 158.236901 43.1706422 171.743323 43.1706422 171.743323 41.0876656 158.236901 41.0876656"></polygon>
                        </g>
                    </g>
                    <g id="Group">
                        <polygon id="Path" fill="url(#linearGradient-1)" points="45.877472 0.32579001 9.77023445 77.7667686 14.5184506 77.7667686 50.6256881 0.32579001"></polygon>
                        <polygon id="Path" fill="url(#linearGradient-2)" points="36.3602446 0.32579001 0.249541284 77.7667686 4.99775739 77.7667686 41.1084608 0.32579001"></polygon>
                    </g>
                    <text id="TM" font-family="ArialMT, Arial" font-size="4" font-weight="normal" letter-spacing="1.2012012" fill="#FFFFFF">
                        <tspan x="344" y="28">TM</tspan>
                    </text>
                </g>
            </g>
        </g>
    </g>
</svg>