<?xml version="1.0" encoding="UTF-8"?>
<svg width="329px" height="68px" viewBox="0 0 329 68" version="1.1" xmlns="http://www.w3.org/2000/svg" xmlns:xlink="http://www.w3.org/1999/xlink">
    <title>test</title>
    <defs>
        <linearGradient x1="50%" y1="0%" x2="50%" y2="99.333479%" id="linearGradient-1">
            <stop stop-color="#7ED0F0" offset="0%"></stop>
            <stop stop-color="#FFFFFF" stop-opacity="0.985932037" offset="100%"></stop>
        </linearGradient>
    </defs>
    <g id="Page-1" stroke="none" stroke-width="1" fill="none" fill-rule="evenodd">
        <g id="test">
            <g id="SvgjsG1345" fill="url(#linearGradient-1)">
                <path d="M38,0 L38,13.6 L24.2553191,13.6 L29.8999362,8.0148 C27.0855106,5.7568 23.5038085,4.4 19.606383,4.4 C10.5785532,4.4 3.23404255,11.6672 3.23404255,20.6 C3.23404255,29.5328 10.5785532,36.8 19.606383,36.8 C23.1120265,36.8 26.3633309,35.7042174 29.0296084,33.8406131 L29.029811,37.6083551 C26.2318866,39.1323374 23.0196492,40 19.606383,40 C8.79538298,40 0,31.2972 0,20.6 C0,9.9028 8.79538298,1.2 19.606383,1.2 C24.3955957,1.2 28.7874255,2.91 32.1961064,5.7428 L32.1961064,5.7428 L38,0 Z" id="Combined-Shape"></path>
            </g>
            <g id="SvgjsG1346" transform="translate(32.000000, 2.000004)" fill="#FFFFFF" fill-rule="nonzero">
                <path d="M21.7317049,16.6341445 L20.3902416,24.0792656 C17.9085346,23.006095 17.4390224,23.2073145 16.2987787,23.2073145 C12.2743889,23.2073145 9.92682815,25.3536557 9.92682815,30.6524356 L9.92682815,49.2987749 L0,49.2987749 L0,16.1646323 L9.92682815,16.1646323 L9.92682815,19.1158515 C11.2012183,16.835364 14.6890227,15.6951202 16.9024371,15.6951202 C18.9817052,15.6951202 20.1890221,15.7621933 21.7317049,16.6341445 Z M56.220376,32.7987768 L56.220376,35.0121912 L32.6106226,35.0121912 C32.6106226,38.9024347 36.5679392,41.6524343 39.8545242,41.6524343 C43.0740361,41.6524343 46.0252552,40.3780442 47.567938,37.5609714 L54.2081812,43.6646292 C51.5252546,47.28658 47.4337917,49.8353603 39.8545242,49.8353603 C28.9886718,49.8353603 22.3484286,42.5914586 22.3484286,32.7987768 C22.3484286,23.006095 28.7874523,15.6951202 39.2508658,15.6951202 C49.7142792,15.6951202 56.220376,22.8719486 56.220376,32.7987768 Z M32.8118421,28.7073138 L45.8240358,28.7073138 C45.2874504,25.5548752 43.0069629,23.8780461 39.2508658,23.8780461 C35.6289149,23.8780461 33.4155006,25.8231678 32.8118421,28.7073138 L32.8118421,28.7073138 Z M80.3127069,1.74390224 L80.3127069,9.59146234 C78.9041705,8.31707224 76.6907561,8.24999907 76.0870976,8.24999907 C72.6663663,8.24999907 72.4651468,11.8719499 72.4651468,14.6219496 L72.4651468,16.1646323 L80.3127069,16.1646323 L80.3127069,24.3475582 L72.4651468,24.3475582 L72.4651468,49.2987749 L62.5383187,49.2987749 L62.5383187,24.3475582 L58.8492947,24.3475582 L58.8492947,16.1646323 L62.5383187,16.1646323 L62.5383187,14.6219496 C62.5383187,4.15853612 66.4285621,0 74.8797807,0 C76.8919756,0 78.7700242,0.804877958 80.3127069,1.74390224 Z M106.551379,16.6341445 L105.209916,24.0792656 C102.728209,23.006095 102.258697,23.2073145 101.118453,23.2073145 C97.094063,23.2073145 94.7465023,25.3536557 94.7465023,30.6524356 L94.7465023,49.2987749 L84.8196742,49.2987749 L84.8196742,16.1646323 L94.7465023,16.1646323 L94.7465023,19.1158515 C96.0208924,16.835364 99.5086969,15.6951202 101.722111,15.6951202 C103.801379,15.6951202 105.008696,15.7621933 106.551379,16.6341445 Z M141.04005,32.7987768 L141.04005,35.0121912 L117.430297,35.0121912 C117.430297,38.9024347 121.387613,41.6524343 124.674198,41.6524343 C127.89371,41.6524343 130.844929,40.3780442 132.387612,37.5609714 L139.027855,43.6646292 C136.344929,47.28658 132.253466,49.8353603 124.674198,49.8353603 C113.808346,49.8353603 107.168103,42.5914586 107.168103,32.7987768 C107.168103,23.006095 113.607126,15.6951202 124.07054,15.6951202 C134.533953,15.6951202 141.04005,22.8719486 141.04005,32.7987768 L141.04005,32.7987768 Z M117.631516,28.7073138 L130.64371,28.7073138 C130.107125,25.5548752 127.826637,23.8780461 124.07054,23.8780461 C120.448589,23.8780461 118.235175,25.8231678 117.631516,28.7073138 Z M153.528724,26.6280458 C153.528724,30.5853624 170.297015,28.7073138 170.297015,39.1707273 C170.297015,46.0121899 164.26043,49.8353603 156.748236,49.8353603 C151.986041,49.8353603 147.223847,47.4877995 143.467749,43.7317024 L149.973846,37.2256056 C151.851895,39.5060931 154.534821,41.2499954 156.748236,41.4512149 C158.96165,41.6524343 160.839699,40.7134101 161.175064,39.7073126 C161.979942,37.1585324 157.351894,37.0243861 155.943358,36.6219471 C150.644578,35.0121912 144.473847,32.7987768 144.473847,26.2256068 C144.473847,18.3780467 152.656773,15.6951202 156.748236,15.6951202 C161.443357,15.6951202 166.205552,17.8414614 170.028722,21.7317049 L163.589698,28.1707285 C161.845796,25.890241 158.827504,24.0792656 156.748236,24.0792656 C155.675065,24.0792656 153.528724,24.4817046 153.528724,26.6280458 Z M206.127149,30.3841429 L206.127149,49.2987749 L196.200321,49.2987749 L196.200321,30.3841429 C196.200321,25.2865825 194.858858,23.1402413 190.968614,23.1402413 C186.944224,23.1402413 184.596664,25.2865825 184.596664,30.3841429 L184.596664,49.2987749 L174.669836,49.2987749 L174.669836,0.603658469 L184.596664,0.603658469 L184.596664,19.8536563 C185.871054,16.1646323 190.700322,15.6951202 193.584468,15.6951202 C202.840564,15.6951202 206.127149,20.1890221 206.127149,30.3841429 Z M221.701188,16.1646323 L221.701188,49.2987749 L211.77436,49.2987749 L211.77436,16.1646323 L221.701188,16.1646323 Z M221.969481,6.64024316 C221.969481,9.45731601 219.688993,11.6707304 216.670701,11.6707304 C213.786555,11.6707304 211.438994,9.45731601 211.438994,6.64024316 C211.438994,3.89024347 213.786555,1.74390224 216.670701,1.74390224 C219.688993,1.74390224 221.969481,3.89024347 221.969481,6.64024316 Z M258.269127,30.3841429 L258.269127,49.2987749 L248.342299,49.2987749 L248.342299,30.3841429 C248.342299,25.3536557 247.000836,23.1402413 243.110593,23.1402413 C239.086203,23.1402413 236.738642,25.3536557 236.738642,30.3841429 L236.738642,49.2987749 L226.811814,49.2987749 L226.811814,16.1646323 L236.738642,16.1646323 L236.738642,19.317071 C239.287422,16.835364 242.775227,15.6951202 245.659373,15.6951202 C254.982542,15.6951202 258.269127,20.1890221 258.269127,30.3841429 Z M286.117555,16.1646323 L296.044384,16.1646323 L296.044384,48.2926775 C296.044384,58.0853593 288.867555,65.9999926 278.538288,65.9999926 C272.837069,65.9999926 268.544387,63.3841392 264.78829,59.2256031 L271.830972,52.8536526 C273.91024,55.9390181 275.788288,57.8170667 278.538288,57.8170667 C283.233409,57.8170667 286.050482,52.6524331 286.050482,47.0182874 C284.843165,48.628047 281.288288,49.7682871 279.20902,49.7682871 C269.550484,49.7682871 262.440729,42.5243855 262.440729,32.7317036 C262.440729,22.9390218 269.550484,15.628047 279.20902,15.628047 C281.489507,15.628047 285.044385,16.835364 286.117555,18.3780467 L286.117555,16.1646323 L286.117555,16.1646323 Z M279.879751,42.323166 C284.373653,42.323166 287.459019,37.1585324 287.459019,32.7317036 C287.459019,28.2378017 284.440726,23.1402413 279.879751,23.1402413 C275.788288,23.1402413 272.367557,27.4329237 272.367557,32.7317036 C272.367557,37.9634104 275.788288,42.323166 279.879751,42.323166 Z" id="Shape"></path>
            </g>
        </g>
    </g>
</svg>