<svg xmlns="http://www.w3.org/2000/svg" width="88.43" height="88.436" viewBox="0 0 88.43 88.436">
  <g id="Group_3" data-name="Group 3" transform="translate(-838.525 -420.198)">
    <path id="path226" d="M673.276-569.344a53.28,53.28,0,0,0,4.741-8.491,37.279,37.279,0,0,1,5.707,1.731A27.918,27.918,0,0,1,673.276-569.344Zm-29.448-6.683a50.4,50.4,0,0,1,5.452-1.575,53.168,53.168,0,0,0,4.451,8.079A28.02,28.02,0,0,1,643.828-576.027Zm10.353-45.784a41.1,41.1,0,0,0-5.408,8.776,47.7,47.7,0,0,1-5.369-1.655,27.885,27.885,0,0,1,10.777-7.121Zm30.181,7.421a35.957,35.957,0,0,1-5.559,1.733,41.119,41.119,0,0,0-5.473-9.148,27.984,27.984,0,0,1,11.032,7.415Zm-2.2,16.344a42.221,42.221,0,0,0-1.667-9.944,36.42,36.42,0,0,0,6.923-2.373,27.753,27.753,0,0,1,4.127,12.317Zm-.064,4.92h9.447a27.75,27.75,0,0,1-4.6,13.059,36.748,36.748,0,0,0-7.123-2.405,46.347,46.347,0,0,0,2.28-10.653Zm-15.9,9v-9h10.963a41.845,41.845,0,0,1-2.2,9.721,70.089,70.089,0,0,0-8.76-.72Zm0,4.92a67.558,67.558,0,0,1,6.819.5,47.459,47.459,0,0,1-6.819,10.5Zm-4.917.039v11.383c-.017,0-.032-.005-.047-.005a47.541,47.541,0,0,1-6.989-10.733A69.114,69.114,0,0,1,661.285-579.165Zm-11.171-13.96h11.171v9.037a73.262,73.262,0,0,0-8.96.881,41.4,41.4,0,0,1-2.211-9.919Zm-4.933,0a45.956,45.956,0,0,0,2.3,10.893,49.351,49.351,0,0,0-6.928,2.184,27.671,27.671,0,0,1-4.615-13.077Zm-.031-4.92h-9.209a27.745,27.745,0,0,1,4.312-12.619,43.783,43.783,0,0,0,6.752,2.272A41.939,41.939,0,0,0,645.15-598.045Zm16.135-8.281v8.281h-11.2a36.979,36.979,0,0,1,1.783-9.3A72.008,72.008,0,0,0,661.285-606.326Zm0-15.869v10.94a66.854,66.854,0,0,1-7.492-.763,34.972,34.972,0,0,1,7.492-10.177Zm4.917,11.008v-11.089a35.363,35.363,0,0,1,7.561,10.531A66.02,66.02,0,0,1,666.2-611.188Zm0,4.921a71.081,71.081,0,0,0,9.407-.767,37.1,37.1,0,0,1,1.623,8.988H666.2Zm-2.461-21.841a32.561,32.561,0,0,0-32.521,32.523,32.579,32.579,0,0,0,27.257,32.1c.04.041.077.089.119.127l.1-.093a32.333,32.333,0,0,0,5.045.4,32.562,32.562,0,0,0,32.521-32.528,32.56,32.56,0,0,0-32.521-32.523" transform="translate(219 1059.999)"/>
    <path id="path228" d="M663.741-634.552a39.011,39.011,0,0,0-38.966,38.967,39.012,39.012,0,0,0,38.966,38.969,39.013,39.013,0,0,0,38.968-38.969,39.011,39.011,0,0,0-38.968-38.967Zm0,83.186a44.271,44.271,0,0,1-44.216-44.22A44.266,44.266,0,0,1,663.741-639.8a44.263,44.263,0,0,1,44.215,44.216,44.268,44.268,0,0,1-44.215,44.22" transform="translate(219 1059.999)"/>
  </g>
</svg>
