<svg xmlns="http://www.w3.org/2000/svg" width="242.12" height="322" viewBox="0 0 242.12 322">
  <g id="Group_4" data-name="Group 4" transform="translate(-204 -191)">
    <path id="Subtraction_2" data-name="Subtraction 2" d="M154,140H19A18.985,18.985,0,0,1,0,121V19A18.984,18.984,0,0,1,19,0H154a18.984,18.984,0,0,1,19,19V121a18.984,18.984,0,0,1-19,19ZM20,21v98H154V21Z" transform="translate(272 259)" fill="#aaa"/>
    <path id="Subtraction_3" data-name="Subtraction 3" d="M162,322H22A21.982,21.982,0,0,1,0,300V22A21.981,21.981,0,0,1,22,0H162a21.981,21.981,0,0,1,22,22V46H161V35H22V265H161V230h23v70a21.981,21.981,0,0,1-22,22ZM92,275a13,13,0,1,0,9.193,3.808A12.914,12.914,0,0,0,92,275Z" transform="translate(204 191)" fill="#aaa"/>
    <path id="Subtraction_4" data-name="Subtraction 4" d="M157.914,260.638a39.875,39.875,0,0,1-28.284-11.716L70.708,190H101.82l43.366,43.366a18,18,0,0,0,25.456,0L214.008,190H245.12L186.2,248.922a39.874,39.874,0,0,1-28.284,11.716Z" transform="translate(201 90)" fill="#aaa"/>
  </g>
</svg>
