<svg xmlns="http://www.w3.org/2000/svg" width="90.544" height="73.108" viewBox="0 0 90.544 73.108">
  <g id="Group_1" data-name="Group 1" transform="translate(-1120.974 -431.799)">
    <path id="path182" d="M959.415-579.072h-24.7a2.714,2.714,0,0,0-1.887.8l-.021.011-11.337,11.343v-9.58a2.712,2.712,0,0,0-2.685-2.573h-8.928a2.476,2.476,0,0,1-2.473-2.477v-38.732a2.477,2.477,0,0,1,2.473-2.471h49.556a2.48,2.48,0,0,1,2.475,2.471v38.732h0A2.479,2.479,0,0,1,959.415-579.072Zm27.12-31.491H967.294v-10.064a7.568,7.568,0,0,0-7.569-7.573H909.55a7.575,7.575,0,0,0-7.576,7.573v39.391a7.574,7.574,0,0,0,7.576,7.572h6.495v12.808a2.856,2.856,0,0,0,2.853,2.861,2.831,2.831,0,0,0,2.056-.877h0l14.759-14.795H940.9v.205a5.983,5.983,0,0,0,5.981,5.987h18.969l11.668,11.692h0a2.242,2.242,0,0,0,1.621.691,2.256,2.256,0,0,0,2.256-2.259v-10.124h5.135a5.983,5.983,0,0,0,5.983-5.983v-31.131a5.977,5.977,0,0,0-5.983-5.975" transform="translate(219 1059.999)"/>
    <path id="path184" d="M914.238-610.421h40.731v-5.5H914.238v5.5" transform="translate(219 1059.999)"/>
    <path id="path186" d="M914.238-598.2h40.731v-5.5H914.238v5.5" transform="translate(219 1059.999)"/>
    <path id="path188" d="M914.238-585.967h40.731v-5.5H914.238v5.5" transform="translate(219 1059.999)"/>
  </g>
</svg>
