<svg xmlns="http://www.w3.org/2000/svg" width="91.701" height="77.156" viewBox="0 0 91.701 77.156">
  <g id="Group_2" data-name="Group 2" transform="translate(-1458.772 -413.443)">
    <path id="path80" d="M1310.734-620.531a.524.524,0,0,1,.525-.521h4.661a.521.521,0,0,1,.519.521v1.784a.513.513,0,0,1-.147.36h-5.412a.507.507,0,0,1-.147-.36Zm-7.517,23.888h20.235v-21.744h-5.388v-1.919a1.947,1.947,0,0,0-1.817-2.185h-5.191a1.946,1.946,0,0,0-1.816,2.185v1.919h-6.023v21.744" transform="translate(219 1059.999)"/>
    <path id="path82" d="M1331.473-613.615l-.331,13.083c0,2.239-1.1,4.071-3.956,4.071h-1.92v-21.816h2.251c2.8,0,3.956,1.855,3.956,4.663" transform="translate(219 1059.999)"/>
    <path id="path84" d="M1295.289-600.532v-13.083c0-2.24,1.093-4.859,3.757-4.859h2.549v22.012h-2.549c-2.664,0-3.757-1.832-3.757-4.071" transform="translate(219 1059.999)"/>
    <path id="path86" d="M1274.228-623.56c0-.353.2-.639.436-.639h3.871c.236,0,.429.285.429.639v.3a.824.824,0,0,1-.12.443h-4.495a.826.826,0,0,1-.121-.443Zm-6.24,27.339h16.8v-26.6h-4.472v-.471c0-1.644-.681-2.272-1.511-2.272h-4.309c-.829,0-1.507.628-1.507,2.272v.471h-5v26.6" transform="translate(219 1059.999)"/>
    <path id="path88" d="M1291.448-616.979l-.275,16c0,2.739-.388,4.98-3.284,4.98h-1.595v-26.687h1.869c3.072,0,3.284,1.888,3.284,5.707" transform="translate(219 1059.999)"/>
    <path id="path90" d="M1261.4-600.979v-16c0-2.743,0-5.945,3.12-5.945h2.119V-596h-2.119c-2.823,0-3.12-2.241-3.12-4.98" transform="translate(219 1059.999)"/>
    <path id="path92" d="M1252.033-646.512c.04,0,.072,0,.1,0,2.244.337,4.123,1.869,4.231,4.071v51.172h69.048v4.323h-74.34v-55.027h-11.3v-4.585h12.261v.044" transform="translate(219 1059.999)"/>
    <path id="path94" d="M1314.111-576.711a3.858,3.858,0,0,1,3.851-3.853,3.858,3.858,0,0,1,3.848,3.853,3.855,3.855,0,0,1-3.848,3.852A3.854,3.854,0,0,1,1314.111-576.711Zm-3.46,0a7.323,7.323,0,0,0,7.311,7.311,7.323,7.323,0,0,0,7.307-7.311,7.322,7.322,0,0,0-7.307-7.308,7.322,7.322,0,0,0-7.311,7.308" transform="translate(219 1059.999)"/>
    <path id="path96" d="M1254.653-576.711a3.856,3.856,0,0,1,3.849-3.853,3.857,3.857,0,0,1,3.851,3.853,3.854,3.854,0,0,1-3.851,3.852A3.852,3.852,0,0,1,1254.653-576.711Zm-3.457,0a7.321,7.321,0,0,0,7.307,7.311,7.322,7.322,0,0,0,7.307-7.311,7.322,7.322,0,0,0-7.307-7.308,7.321,7.321,0,0,0-7.307,7.308" transform="translate(219 1059.999)"/>
  </g>
</svg>
